<?xml version="1.0" encoding="UTF-8"?>
<svg xmlns="http://www.w3.org/2000/svg" xmlns:xlink="http://www.w3.org/1999/xlink" width="36px" height="36px" viewBox="0 0 36 36" version="1.1">
<g id="surface1">
<path style=" stroke:none;fill-rule:nonzero;fill:rgb(6.666667%,44.705883%,72.156864%);fill-opacity:1;" d="M 6.75 31.5 L 4.5 3.375 L 31.5 3.375 L 29.25 31.5 L 18 34.875 Z M 6.75 31.5 "/>
<path style=" stroke:none;fill-rule:nonzero;fill:rgb(20%,66.666669%,86.666667%);fill-opacity:1;" d="M 29.25 5.625 L 18 5.625 L 18 33.1875 L 27 30.375 Z M 29.25 5.625 "/>
<path style=" stroke:none;fill-rule:nonzero;fill:rgb(100%,100%,100%);fill-opacity:1;" d="M 21.9375 19.6875 L 10.6875 19.6875 L 10.125 15.75 L 19.125 12.9375 L 10.125 12.9375 L 9.5625 9.5625 L 27 9.5625 L 26.4375 13.5 L 19.125 16.3125 L 25.875 16.3125 L 24.75 27 L 18 29.25 L 11.25 27 L 10.6875 21.375 L 14.0625 21.375 L 14.625 24.1875 L 18 25.3125 L 21.375 24.1875 Z M 21.9375 19.6875 "/>
</g>
</svg>
