<?xml version="1.0" encoding="UTF-8"?>
<svg xmlns="http://www.w3.org/2000/svg" xmlns:xlink="http://www.w3.org/1999/xlink" width="36px" height="36px" viewBox="0 0 36 56" version="1.1">
<g id="surface1">
<path style=" stroke:none;fill-rule:nonzero;fill:rgb(10.196079%,81.960785%,64.705884%);fill-opacity:1;" d="M 9.339844 38.917969 L 26.660156 38.917969 C 31.445312 38.917969 35.324219 42.738281 35.324219 47.453125 C 35.324219 52.167969 31.445312 55.992188 26.660156 55.992188 L 9.339844 55.992188 C 4.554688 55.992188 0.675781 52.167969 0.675781 47.453125 C 0.675781 42.738281 4.554688 38.917969 9.339844 38.917969 Z M 9.339844 38.917969 "/>
<path style=" stroke:none;fill-rule:nonzero;fill:rgb(100%,100%,100%);fill-opacity:1;" d="M 35.324219 17.742188 C 35.324219 8.3125 27.566406 0.667969 18 0.667969 C 8.433594 0.667969 0.675781 8.3125 0.675781 17.742188 C 0.675781 27.171875 8.433594 34.816406 18 34.816406 C 27.566406 34.816406 35.324219 27.171875 35.324219 17.742188 Z M 35.324219 17.742188 "/>
<path style=" stroke:none;fill-rule:nonzero;fill:rgb(0%,0%,0%);fill-opacity:0.2;" d="M 18 0 C 27.941406 0 36 7.945312 36 17.742188 C 36 27.542969 27.941406 35.484375 18 35.484375 C 8.058594 35.484375 0 27.542969 0 17.742188 C 0 7.945312 8.058594 0 18 0 Z M 18 0.667969 C 8.433594 0.667969 0.675781 8.3125 0.675781 17.742188 C 0.675781 27.171875 8.433594 34.816406 18 34.816406 C 27.566406 34.816406 35.324219 27.171875 35.324219 17.742188 C 35.324219 8.3125 27.566406 0.667969 18 0.667969 Z M 18 0.667969 "/>
<path style=" stroke:none;fill-rule:nonzero;fill:rgb(100%,60.000002%,1.176471%);fill-opacity:1;" d="M 25.761719 17.742188 C 25.761719 13.519531 22.285156 10.09375 18 10.09375 C 13.714844 10.09375 10.238281 13.519531 10.238281 17.742188 C 10.238281 21.96875 13.714844 25.390625 18 25.390625 C 22.285156 25.390625 25.761719 21.96875 25.761719 17.742188 Z M 25.761719 17.742188 "/>
</g>
</svg>
