<?xml version="1.0" encoding="UTF-8"?>
<svg xmlns="http://www.w3.org/2000/svg" xmlns:xlink="http://www.w3.org/1999/xlink" width="36px" height="36px" viewBox="0 0 36 36" version="1.1">
<g id="surface1">
<path style=" stroke:none;fill-rule:nonzero;fill:rgb(100%,76.078433%,29.019609%);fill-opacity:1;" d="M 6.523438 27.675781 L 6.714844 27.410156 L 15.738281 10.292969 L 15.757812 10.113281 L 11.78125 2.640625 C 11.632812 2.363281 11.320312 2.207031 11.007812 2.261719 C 10.695312 2.3125 10.449219 2.5625 10.402344 2.875 Z M 6.523438 27.675781 "/>
<path style=" stroke:none;fill-rule:nonzero;fill:rgb(100%,65.490198%,7.058824%);fill-opacity:1;" d="M 6.636719 27.472656 L 6.78125 27.191406 L 15.710938 10.253906 L 11.742188 2.753906 C 11.609375 2.484375 11.316406 2.339844 11.019531 2.390625 C 10.726562 2.445312 10.5 2.6875 10.46875 2.984375 Z M 6.636719 27.472656 "/>
<path style=" stroke:none;fill-rule:nonzero;fill:rgb(95.686275%,74.117649%,38.431373%);fill-opacity:1;" d="M 18.65625 15.761719 L 21.617188 12.722656 L 18.65625 7.074219 C 18.523438 6.828125 18.265625 6.671875 17.984375 6.671875 C 17.703125 6.671875 17.445312 6.828125 17.3125 7.074219 L 15.730469 10.09375 L 15.730469 10.351562 Z M 18.65625 15.761719 "/>
<path style=" stroke:none;fill-rule:nonzero;fill:rgb(100%,64.705884%,5.490196%);fill-opacity:1;" d="M 18.605469 15.636719 L 21.484375 12.691406 L 18.605469 7.199219 C 18.507812 6.957031 18.277344 6.792969 18.015625 6.78125 C 17.757812 6.769531 17.511719 6.914062 17.394531 7.148438 L 15.804688 10.21875 L 15.757812 10.375 Z M 18.605469 15.636719 "/>
<path style=" stroke:none;fill-rule:nonzero;fill:rgb(96.470588%,50.980395%,4.705882%);fill-opacity:1;" d="M 6.527344 27.675781 L 6.613281 27.589844 L 6.929688 27.460938 L 18.46875 15.960938 L 18.617188 15.5625 L 15.738281 10.074219 Z M 6.527344 27.675781 "/>
<path style=" stroke:none;fill-rule:nonzero;fill:rgb(99.215686%,87.843138%,40.784314%);fill-opacity:1;" d="M 19.027344 33.476562 L 29.476562 27.648438 L 26.488281 9.277344 C 26.445312 9.011719 26.257812 8.796875 26.003906 8.714844 C 25.75 8.632812 25.46875 8.699219 25.28125 8.886719 L 6.523438 27.675781 L 16.914062 33.472656 C 17.570312 33.839844 18.367188 33.839844 19.023438 33.472656 "/>
<path style=" stroke:none;fill-rule:nonzero;fill:rgb(98.823529%,79.215688%,24.705882%);fill-opacity:1;" d="M 29.378906 27.601562 L 26.417969 9.367188 C 26.40625 9.113281 26.246094 8.890625 26.007812 8.804688 C 25.769531 8.71875 25.5 8.78125 25.332031 8.96875 L 6.636719 27.640625 L 16.910156 33.378906 C 17.5625 33.742188 18.355469 33.742188 19.003906 33.378906 Z M 29.378906 27.601562 "/>
<path style=" stroke:none;fill-rule:nonzero;fill:rgb(93.333334%,67.058825%,21.568628%);fill-opacity:1;" d="M 19.027344 33.300781 C 18.371094 33.667969 17.570312 33.667969 16.914062 33.300781 L 6.609375 27.585938 L 6.523438 27.675781 L 16.914062 33.472656 C 17.570312 33.839844 18.367188 33.839844 19.023438 33.472656 L 29.476562 27.648438 L 29.449219 27.492188 Z M 19.027344 33.300781 "/>
</g>
</svg>
