<?xml version="1.0" encoding="UTF-8"?>
<svg xmlns="http://www.w3.org/2000/svg" xmlns:xlink="http://www.w3.org/1999/xlink" width="36px" height="36px" viewBox="0 0 36 36" version="1.1">
<g id="surface1">
<path style=" stroke:none;fill-rule:nonzero;fill:rgb(51.372552%,80.392158%,16.078432%);fill-opacity:1;" d="M 33.121094 16.53125 C 33.035156 16.53125 32.949219 16.550781 32.871094 16.59375 L 30.488281 17.96875 C 30.335938 18.058594 30.242188 18.222656 30.242188 18.402344 L 30.242188 21.148438 C 30.242188 21.328125 30.335938 21.496094 30.488281 21.585938 L 31.113281 21.945312 C 31.414062 22.09375 31.527344 22.089844 31.664062 22.089844 C 32.113281 22.089844 32.367188 21.820312 32.367188 21.347656 L 32.367188 18.636719 C 32.367188 18.597656 32.332031 18.570312 32.296875 18.570312 L 31.996094 18.570312 C 31.960938 18.570312 31.925781 18.597656 31.925781 18.636719 L 31.925781 21.347656 C 31.925781 21.554688 31.707031 21.765625 31.355469 21.589844 L 30.707031 21.210938 C 30.683594 21.199219 30.667969 21.175781 30.667969 21.148438 L 30.667969 18.402344 C 30.667969 18.378906 30.683594 18.351562 30.707031 18.335938 L 33.085938 16.964844 C 33.105469 16.953125 33.132812 16.953125 33.15625 16.964844 L 35.535156 18.335938 C 35.554688 18.351562 35.574219 18.375 35.574219 18.402344 L 35.574219 21.148438 C 35.574219 21.175781 35.5625 21.203125 35.539062 21.214844 L 33.15625 22.585938 C 33.136719 22.597656 33.109375 22.597656 33.085938 22.585938 L 32.472656 22.222656 C 32.453125 22.210938 32.429688 22.210938 32.414062 22.222656 C 32.242188 22.320312 32.210938 22.328125 32.054688 22.382812 C 32.015625 22.398438 31.953125 22.417969 32.074219 22.484375 L 32.871094 22.957031 C 32.949219 23 33.035156 23.023438 33.121094 23.023438 C 33.207031 23.023438 33.292969 23 33.367188 22.957031 L 35.75 21.585938 C 35.90625 21.496094 36 21.328125 36 21.148438 L 36 18.402344 C 36 18.226562 35.90625 18.058594 35.75 17.96875 L 33.367188 16.59375 C 33.292969 16.550781 33.207031 16.53125 33.121094 16.53125 Z M 33.121094 16.53125 "/>
<path style=" stroke:none;fill-rule:nonzero;fill:rgb(51.372552%,80.392158%,16.078432%);fill-opacity:1;" d="M 33.757812 18.496094 C 33.078125 18.496094 32.675781 18.78125 32.675781 19.261719 C 32.675781 19.785156 33.078125 19.925781 33.726562 19.992188 C 34.507812 20.066406 34.566406 20.183594 34.566406 20.335938 C 34.566406 20.601562 34.355469 20.714844 33.855469 20.714844 C 33.222656 20.714844 33.085938 20.558594 33.039062 20.246094 C 33.035156 20.210938 33.007812 20.183594 32.972656 20.183594 L 32.664062 20.183594 C 32.628906 20.183594 32.59375 20.214844 32.59375 20.253906 C 32.59375 20.65625 32.8125 21.128906 33.855469 21.128906 C 34.609375 21.128906 35.042969 20.832031 35.042969 20.316406 C 35.042969 19.800781 34.691406 19.664062 33.960938 19.566406 C 33.222656 19.46875 33.152344 19.421875 33.152344 19.246094 C 33.152344 19.105469 33.210938 18.914062 33.757812 18.914062 C 34.246094 18.914062 34.429688 19.019531 34.5 19.347656 C 34.507812 19.378906 34.535156 19.40625 34.566406 19.40625 L 34.875 19.40625 C 34.894531 19.40625 34.914062 19.394531 34.925781 19.378906 C 34.941406 19.363281 34.949219 19.347656 34.945312 19.328125 C 34.898438 18.761719 34.519531 18.496094 33.757812 18.496094 Z M 33.757812 18.496094 "/>
<path style=" stroke:none;fill-rule:nonzero;fill:rgb(25.098041%,25.490198%,21.568628%);fill-opacity:1;" d="M 19.113281 12.929688 C 19.085938 12.929688 19.058594 12.9375 19.035156 12.949219 C 18.988281 12.976562 18.960938 13.027344 18.960938 13.082031 L 18.960938 16.949219 C 18.960938 16.988281 18.941406 17.023438 18.910156 17.042969 C 18.878906 17.0625 18.835938 17.0625 18.804688 17.042969 L 18.171875 16.679688 C 18.078125 16.625 17.960938 16.625 17.867188 16.679688 L 15.34375 18.136719 C 15.25 18.1875 15.191406 18.292969 15.191406 18.402344 L 15.191406 21.316406 C 15.191406 21.425781 15.25 21.527344 15.34375 21.582031 L 17.867188 23.039062 C 17.960938 23.089844 18.078125 23.089844 18.171875 23.039062 L 20.695312 21.582031 C 20.789062 21.527344 20.847656 21.425781 20.847656 21.316406 L 20.847656 14.050781 C 20.847656 13.941406 20.789062 13.839844 20.691406 13.785156 L 19.1875 12.945312 C 19.164062 12.929688 19.136719 12.929688 19.113281 12.929688 Z M 2.871094 16.566406 C 2.824219 16.570312 2.78125 16.578125 2.738281 16.601562 L 0.210938 18.058594 C 0.117188 18.113281 0.0585938 18.214844 0.0585938 18.320312 L 0.0664062 22.234375 C 0.0664062 22.289062 0.09375 22.335938 0.140625 22.363281 C 0.1875 22.390625 0.246094 22.390625 0.292969 22.363281 L 1.789062 21.503906 C 1.886719 21.449219 1.945312 21.351562 1.945312 21.242188 L 1.945312 19.414062 C 1.945312 19.304688 2.003906 19.207031 2.097656 19.152344 L 2.738281 18.78125 C 2.78125 18.753906 2.835938 18.742188 2.886719 18.742188 C 2.941406 18.742188 2.992188 18.753906 3.039062 18.78125 L 3.675781 19.152344 C 3.773438 19.207031 3.828125 19.304688 3.828125 19.414062 L 3.828125 21.242188 C 3.828125 21.351562 3.890625 21.449219 3.984375 21.503906 L 5.484375 22.363281 C 5.53125 22.390625 5.589844 22.390625 5.636719 22.363281 C 5.683594 22.335938 5.710938 22.285156 5.710938 22.234375 L 5.714844 18.320312 C 5.714844 18.214844 5.660156 18.113281 5.5625 18.058594 L 3.039062 16.601562 C 2.996094 16.578125 2.953125 16.570312 2.902344 16.566406 Z M 25.558594 16.601562 C 25.503906 16.601562 25.453125 16.617188 25.40625 16.640625 L 22.882812 18.097656 C 22.789062 18.152344 22.730469 18.253906 22.730469 18.363281 L 22.730469 21.277344 C 22.730469 21.386719 22.792969 21.484375 22.886719 21.539062 L 25.390625 22.964844 C 25.484375 23.019531 25.597656 23.023438 25.6875 22.972656 L 27.207031 22.125 C 27.253906 22.101562 27.289062 22.050781 27.289062 21.996094 C 27.289062 21.941406 27.257812 21.890625 27.210938 21.863281 L 24.671875 20.40625 C 24.625 20.378906 24.589844 20.324219 24.589844 20.269531 L 24.589844 19.359375 C 24.589844 19.304688 24.625 19.253906 24.671875 19.226562 L 25.460938 18.773438 C 25.507812 18.746094 25.566406 18.746094 25.613281 18.773438 L 26.402344 19.226562 C 26.449219 19.253906 26.476562 19.304688 26.476562 19.359375 L 26.476562 20.078125 C 26.476562 20.132812 26.507812 20.183594 26.554688 20.210938 C 26.601562 20.238281 26.660156 20.238281 26.707031 20.210938 L 28.21875 19.328125 C 28.3125 19.273438 28.371094 19.175781 28.371094 19.066406 L 28.371094 18.363281 C 28.371094 18.253906 28.3125 18.152344 28.21875 18.097656 L 25.710938 16.640625 C 25.664062 16.617188 25.609375 16.601562 25.558594 16.601562 Z M 18.007812 18.777344 C 18.023438 18.777344 18.039062 18.78125 18.050781 18.789062 L 18.914062 19.289062 C 18.9375 19.300781 18.957031 19.328125 18.957031 19.355469 L 18.957031 20.355469 C 18.957031 20.382812 18.9375 20.40625 18.914062 20.421875 L 18.050781 20.921875 C 18.027344 20.9375 17.996094 20.9375 17.972656 20.921875 L 17.109375 20.421875 C 17.085938 20.40625 17.070312 20.382812 17.070312 20.355469 L 17.070312 19.355469 C 17.070312 19.328125 17.085938 19.300781 17.109375 19.289062 L 17.972656 18.789062 C 17.984375 18.78125 17.996094 18.777344 18.007812 18.777344 Z M 18.007812 18.777344 "/>
<path style=" stroke:none;fill-rule:nonzero;fill:rgb(51.372552%,80.392158%,16.078432%);fill-opacity:1;" d="M 10.457031 16.585938 C 10.402344 16.585938 10.351562 16.601562 10.304688 16.628906 L 7.78125 18.078125 C 7.6875 18.132812 7.628906 18.238281 7.628906 18.347656 L 7.628906 21.261719 C 7.628906 21.371094 7.6875 21.46875 7.78125 21.523438 L 10.304688 22.980469 C 10.398438 23.035156 10.515625 23.035156 10.609375 22.980469 L 13.132812 21.523438 C 13.226562 21.46875 13.285156 21.371094 13.285156 21.261719 L 13.285156 18.347656 C 13.285156 18.238281 13.226562 18.132812 13.132812 18.078125 L 10.609375 16.628906 C 10.5625 16.601562 10.507812 16.585938 10.457031 16.585938 Z M 25.550781 19.1875 C 25.542969 19.1875 25.53125 19.1875 25.523438 19.191406 L 25.035156 19.476562 C 25.019531 19.484375 25.007812 19.503906 25.007812 19.527344 L 25.007812 20.082031 C 25.007812 20.105469 25.019531 20.121094 25.035156 20.132812 L 25.523438 20.410156 C 25.539062 20.421875 25.558594 20.421875 25.578125 20.410156 L 26.0625 20.132812 C 26.082031 20.121094 26.09375 20.105469 26.09375 20.082031 L 26.09375 19.527344 C 26.09375 19.503906 26.082031 19.484375 26.0625 19.476562 L 25.578125 19.191406 C 25.570312 19.1875 25.5625 19.1875 25.550781 19.1875 Z M 25.550781 19.1875 "/>
</g>
</svg>
