<?xml version="1.0" encoding="UTF-8"?>
<svg xmlns="http://www.w3.org/2000/svg" xmlns:xlink="http://www.w3.org/1999/xlink" width="36px" height="36px" viewBox="0 0 36 32" version="1.1">
<g id="surface1">
<path style=" stroke:none;fill-rule:nonzero;fill:rgb(0%,84.705883%,100%);fill-opacity:1;" d="M 29.542969 10.359375 C 29.160156 10.230469 28.773438 10.109375 28.386719 9.996094 C 28.449219 9.730469 28.511719 9.464844 28.5625 9.207031 C 29.4375 4.957031 28.867188 1.535156 26.910156 0.40625 C 25.039062 -0.675781 21.972656 0.453125 18.875 3.148438 C 18.570312 3.414062 18.273438 3.6875 17.980469 3.96875 C 17.785156 3.78125 17.589844 3.597656 17.386719 3.417969 C 14.140625 0.539062 10.890625 -0.675781 8.9375 0.453125 C 7.0625 1.539062 6.507812 4.757812 7.296875 8.785156 C 7.375 9.183594 7.464844 9.578125 7.5625 9.972656 C 7.101562 10.105469 6.660156 10.246094 6.234375 10.394531 C 2.429688 11.71875 0 13.796875 0 15.953125 C 0 18.179688 2.609375 20.414062 6.570312 21.769531 C 6.890625 21.878906 7.214844 21.976562 7.542969 22.070312 C 7.4375 22.496094 7.339844 22.925781 7.257812 23.355469 C 6.507812 27.3125 7.09375 30.453125 8.960938 31.53125 C 10.890625 32.644531 14.128906 31.5 17.28125 28.746094 C 17.539062 28.519531 17.789062 28.289062 18.03125 28.054688 C 18.347656 28.359375 18.671875 28.652344 19.003906 28.941406 C 22.054688 31.566406 25.070312 32.628906 26.9375 31.550781 C 28.863281 30.433594 29.492188 27.058594 28.679688 22.949219 C 28.613281 22.628906 28.542969 22.308594 28.460938 21.988281 C 28.691406 21.921875 28.914062 21.851562 29.132812 21.78125 C 33.25 20.417969 35.929688 18.210938 35.929688 15.953125 C 35.929688 13.789062 33.421875 11.695312 29.542969 10.359375 Z M 28.648438 20.324219 C 28.453125 20.390625 28.25 20.453125 28.042969 20.511719 C 27.589844 19.074219 26.976562 17.542969 26.226562 15.960938 C 26.941406 14.417969 27.53125 12.90625 27.972656 11.476562 C 28.339844 11.582031 28.699219 11.695312 29.042969 11.8125 C 32.367188 12.957031 34.394531 14.648438 34.394531 15.953125 C 34.394531 17.34375 32.203125 19.144531 28.648438 20.324219 Z M 27.171875 23.246094 C 27.53125 25.0625 27.582031 26.707031 27.34375 27.988281 C 27.132812 29.144531 26.699219 29.914062 26.167969 30.21875 C 25.035156 30.875 22.613281 30.023438 20.003906 27.777344 C 19.695312 27.511719 19.394531 27.234375 19.101562 26.953125 C 20.113281 25.847656 21.125 24.558594 22.113281 23.128906 C 23.847656 22.976562 25.488281 22.722656 26.976562 22.378906 C 27.050781 22.667969 27.113281 22.957031 27.171875 23.246094 Z M 12.25 30.105469 C 11.144531 30.496094 10.261719 30.507812 9.730469 30.203125 C 8.597656 29.546875 8.125 27.023438 8.765625 23.640625 C 8.84375 23.242188 8.929688 22.84375 9.03125 22.449219 C 10.5 22.773438 12.128906 23.007812 13.871094 23.148438 C 14.867188 24.546875 15.90625 25.832031 16.957031 26.960938 C 16.734375 27.175781 16.503906 27.386719 16.273438 27.589844 C 14.878906 28.808594 13.480469 29.671875 12.25 30.105469 Z M 7.066406 20.316406 C 5.316406 19.714844 3.867188 18.9375 2.875 18.089844 C 1.984375 17.324219 1.535156 16.566406 1.535156 15.953125 C 1.535156 14.644531 3.484375 12.976562 6.738281 11.84375 C 7.132812 11.703125 7.546875 11.574219 7.976562 11.453125 C 8.425781 12.914062 9.015625 14.445312 9.726562 15.992188 C 9.003906 17.558594 8.40625 19.113281 7.953125 20.59375 C 7.65625 20.507812 7.359375 20.414062 7.066406 20.316406 Z M 8.804688 8.488281 C 8.128906 5.039062 8.578125 2.433594 9.707031 1.78125 C 10.90625 1.085938 13.566406 2.078125 16.367188 4.566406 C 16.550781 4.730469 16.730469 4.894531 16.90625 5.0625 C 15.863281 6.183594 14.832031 7.460938 13.84375 8.851562 C 12.15625 9.007812 10.539062 9.257812 9.050781 9.597656 C 8.960938 9.230469 8.878906 8.859375 8.804688 8.488281 Z M 24.300781 12.316406 C 23.953125 11.710938 23.585938 11.109375 23.210938 10.519531 C 24.355469 10.664062 25.453125 10.855469 26.484375 11.09375 C 26.175781 12.085938 25.789062 13.121094 25.335938 14.1875 C 25.003906 13.554688 24.660156 12.933594 24.300781 12.316406 Z M 17.980469 6.160156 C 18.691406 6.925781 19.398438 7.785156 20.097656 8.714844 C 18.683594 8.644531 17.265625 8.644531 15.851562 8.710938 C 16.546875 7.792969 17.261719 6.9375 17.980469 6.160156 Z M 11.621094 12.328125 C 11.269531 12.9375 10.929688 13.558594 10.605469 14.183594 C 10.160156 13.125 9.777344 12.082031 9.464844 11.074219 C 10.492188 10.847656 11.582031 10.660156 12.722656 10.515625 C 12.339844 11.113281 11.972656 11.714844 11.621094 12.328125 Z M 12.753906 21.5 C 11.578125 21.367188 10.46875 21.191406 9.445312 20.96875 C 9.761719 19.941406 10.152344 18.878906 10.609375 17.796875 C 10.933594 18.421875 11.273438 19.042969 11.628906 19.652344 C 11.992188 20.28125 12.367188 20.898438 12.753906 21.5 Z M 18.023438 25.855469 C 17.296875 25.070312 16.570312 24.199219 15.863281 23.265625 C 16.550781 23.292969 17.253906 23.308594 17.964844 23.308594 C 18.699219 23.308594 19.421875 23.292969 20.132812 23.261719 C 19.433594 24.210938 18.726562 25.082031 18.023438 25.855469 Z M 25.351562 17.738281 C 25.832031 18.835938 26.234375 19.894531 26.558594 20.898438 C 25.515625 21.136719 24.390625 21.328125 23.207031 21.472656 C 23.585938 20.871094 23.953125 20.261719 24.308594 19.644531 C 24.671875 19.015625 25.015625 18.382812 25.351562 17.738281 Z M 22.980469 18.875 C 22.433594 19.820312 21.859375 20.75 21.253906 21.65625 C 20.160156 21.734375 19.0625 21.773438 17.964844 21.773438 C 16.847656 21.773438 15.757812 21.738281 14.710938 21.671875 C 14.089844 20.765625 13.503906 19.835938 12.957031 18.886719 C 12.410156 17.941406 11.898438 16.972656 11.421875 15.988281 C 11.894531 15.003906 12.40625 14.039062 12.953125 13.09375 L 12.949219 13.09375 C 13.496094 12.148438 14.078125 11.222656 14.691406 10.320312 C 15.761719 10.238281 16.859375 10.199219 17.964844 10.199219 C 19.078125 10.199219 20.175781 10.238281 21.242188 10.320312 C 21.851562 11.222656 22.429688 12.144531 22.972656 13.085938 C 23.519531 14.03125 24.039062 14.992188 24.523438 15.96875 C 24.042969 16.957031 23.527344 17.925781 22.980469 18.875 Z M 26.144531 1.738281 C 27.347656 2.429688 27.816406 5.226562 27.058594 8.898438 C 27.011719 9.132812 26.957031 9.371094 26.898438 9.613281 C 25.410156 9.269531 23.789062 9.011719 22.09375 8.851562 C 21.109375 7.449219 20.085938 6.167969 19.058594 5.0625 C 19.328125 4.804688 19.601562 4.550781 19.882812 4.304688 C 22.535156 1.996094 25.015625 1.085938 26.144531 1.738281 Z M 17.964844 12.746094 C 19.738281 12.746094 21.171875 14.179688 21.171875 15.953125 C 21.171875 17.726562 19.738281 19.160156 17.964844 19.160156 C 16.191406 19.160156 14.757812 17.726562 14.757812 15.953125 C 14.757812 14.179688 16.191406 12.746094 17.964844 12.746094 Z M 17.964844 12.746094 "/>
</g>
</svg>
