<?xml version="1.0" encoding="UTF-8"?>
<svg xmlns="http://www.w3.org/2000/svg" xmlns:xlink="http://www.w3.org/1999/xlink" width="36px" height="36px" viewBox="0 0 36 36" version="1.1">
<g id="surface1">
<path style=" stroke:none;fill-rule:nonzero;fill:rgb(0%,47.843137%,80.000001%);fill-opacity:1;" d="M 0 18 L 0 36 L 36 36 L 36 0 L 0 0 Z M 0 18 "/>
<path style=" stroke:none;fill-rule:nonzero;fill:rgb(100%,100%,100%);fill-opacity:1;" d="M 7.960938 18.121094 L 7.949219 19.59375 L 12.636719 19.59375 L 12.636719 32.90625 L 15.949219 32.90625 L 15.949219 19.59375 L 20.636719 19.59375 L 20.636719 18.148438 C 20.636719 17.347656 20.617188 16.679688 20.59375 16.664062 C 20.578125 16.640625 17.726562 16.628906 14.269531 16.632812 L 7.976562 16.652344 Z M 7.960938 18.121094 "/>
<path style=" stroke:none;fill-rule:nonzero;fill:rgb(100%,100%,100%);fill-opacity:1;" d="M 29.046875 16.609375 C 29.960938 16.835938 30.660156 17.242188 31.300781 17.90625 C 31.632812 18.261719 32.121094 18.90625 32.164062 19.058594 C 32.175781 19.105469 30.609375 20.15625 29.660156 20.746094 C 29.625 20.769531 29.488281 20.621094 29.335938 20.390625 C 28.871094 19.71875 28.386719 19.425781 27.644531 19.375 C 26.550781 19.300781 25.847656 19.871094 25.855469 20.824219 C 25.855469 21.105469 25.894531 21.273438 26.007812 21.5 C 26.25 21.996094 26.695312 22.292969 28.09375 22.902344 C 30.671875 24.007812 31.773438 24.742188 32.460938 25.78125 C 33.226562 26.941406 33.398438 28.792969 32.878906 30.167969 C 32.304688 31.667969 30.886719 32.683594 28.894531 33.019531 C 28.277344 33.128906 26.8125 33.113281 26.152344 32.992188 C 24.707031 32.734375 23.335938 32.019531 22.488281 31.082031 C 22.15625 30.71875 21.511719 29.761719 21.550781 29.695312 C 21.570312 29.671875 21.71875 29.582031 21.882812 29.484375 C 22.042969 29.390625 22.648438 29.042969 23.21875 28.710938 L 24.253906 28.113281 L 24.472656 28.433594 C 24.773438 28.894531 25.4375 29.527344 25.835938 29.742188 C 26.984375 30.347656 28.5625 30.261719 29.339844 29.5625 C 29.671875 29.261719 29.808594 28.945312 29.808594 28.484375 C 29.808594 28.066406 29.757812 27.882812 29.539062 27.570312 C 29.261719 27.167969 28.6875 26.832031 27.066406 26.128906 C 25.207031 25.328125 24.410156 24.832031 23.675781 24.042969 C 23.253906 23.585938 22.855469 22.855469 22.6875 22.242188 C 22.550781 21.734375 22.515625 20.460938 22.625 19.945312 C 23.007812 18.152344 24.363281 16.902344 26.316406 16.527344 C 26.953125 16.410156 28.425781 16.453125 29.046875 16.609375 Z M 29.046875 16.609375 "/>
</g>
</svg>
