<?xml version="1.0" encoding="UTF-8"?>
<svg xmlns="http://www.w3.org/2000/svg" xmlns:xlink="http://www.w3.org/1999/xlink" width="36px" height="36px" viewBox="0 0 36 36" version="1.1">
<defs>
<linearGradient id="linear0" gradientUnits="userSpaceOnUse" x1="6.0002" y1="32.999901" x2="235" y2="344" gradientTransform="matrix(0.0803475,0,0,0.0803475,1.507275,2.1312)">
<stop offset="0" style="stop-color:rgb(25.490196%,81.960784%,100%);stop-opacity:1;"/>
<stop offset="1" style="stop-color:rgb(74.117647%,20.392157%,99.607843%);stop-opacity:1;"/>
</linearGradient>
<linearGradient id="linear1" gradientUnits="userSpaceOnUse" x1="194.651001" y1="8.8182" x2="236.076004" y2="292.989014" gradientTransform="matrix(0.0803475,0,0,0.0803475,1.507275,2.1312)">
<stop offset="0" style="stop-color:rgb(100%,91.764706%,51.372549%);stop-opacity:1;"/>
<stop offset="0.0833" style="stop-color:rgb(100%,86.666667%,20.784314%);stop-opacity:1;"/>
<stop offset="1" style="stop-color:rgb(100%,65.882353%,0%);stop-opacity:1;"/>
</linearGradient>
</defs>
<g id="surface1">
<path style=" stroke:none;fill-rule:nonzero;fill:url(#linear0);" d="M 33.617188 6.914062 L 18.835938 33.351562 C 18.527344 33.898438 17.746094 33.902344 17.433594 33.355469 L 2.359375 6.917969 C 2.019531 6.324219 2.527344 5.609375 3.195312 5.726562 L 17.996094 8.375 C 18.089844 8.390625 18.1875 8.390625 18.28125 8.371094 L 32.773438 5.730469 C 33.441406 5.609375 33.949219 6.320312 33.617188 6.914062 Z M 33.617188 6.914062 "/>
<path style=" stroke:none;fill-rule:nonzero;fill:url(#linear1);" d="M 25.046875 2.257812 L 14.105469 4.402344 C 13.925781 4.4375 13.792969 4.589844 13.78125 4.773438 L 13.109375 16.140625 C 13.09375 16.40625 13.339844 16.613281 13.601562 16.554688 L 16.648438 15.851562 C 16.933594 15.785156 17.191406 16.035156 17.132812 16.324219 L 16.226562 20.753906 C 16.164062 21.054688 16.445312 21.308594 16.738281 21.21875 L 18.617188 20.648438 C 18.910156 20.558594 19.191406 20.816406 19.128906 21.113281 L 17.691406 28.074219 C 17.601562 28.511719 18.179688 28.746094 18.421875 28.375 L 18.582031 28.125 L 27.496094 10.332031 C 27.648438 10.035156 27.390625 9.695312 27.0625 9.757812 L 23.925781 10.363281 C 23.632812 10.421875 23.382812 10.144531 23.464844 9.859375 L 25.511719 2.761719 C 25.59375 2.472656 25.34375 2.199219 25.046875 2.257812 Z M 25.046875 2.257812 "/>
</g>
</svg>
