<?xml version="1.0" encoding="UTF-8"?>
<svg xmlns="http://www.w3.org/2000/svg" xmlns:xlink="http://www.w3.org/1999/xlink" width="36px" height="36px" viewBox="0 0 36 36" version="1.1">
<g id="surface1">
<path style=" stroke:none;fill-rule:nonzero;fill:rgb(10.196079%,73.725492%,99.607843%);fill-opacity:1;" d="M 19.238281 18 C 19.238281 15.101562 21.53125 12.75 24.355469 12.75 C 27.183594 12.75 29.476562 15.097656 29.476562 18 C 29.476562 20.898438 27.183594 23.25 24.355469 23.25 C 21.53125 23.25 19.238281 20.902344 19.238281 18 Z M 19.238281 18 "/>
<path style=" stroke:none;fill-rule:nonzero;fill:rgb(3.921569%,81.176472%,51.372552%);fill-opacity:1;" d="M 9 28.5 C 9 25.601562 11.292969 23.25 14.117188 23.25 L 19.238281 23.25 L 19.238281 28.5 C 19.238281 31.398438 16.945312 33.75 14.117188 33.75 C 11.292969 33.75 9 31.398438 9 28.5 Z M 9 28.5 "/>
<path style=" stroke:none;fill-rule:nonzero;fill:rgb(100%,44.705883%,38.431373%);fill-opacity:1;" d="M 19.238281 2.25 L 19.238281 12.75 L 24.355469 12.75 C 27.183594 12.75 29.476562 10.398438 29.476562 7.5 C 29.476562 4.601562 27.183594 2.25 24.355469 2.25 Z M 19.238281 2.25 "/>
<path style=" stroke:none;fill-rule:nonzero;fill:rgb(94.901961%,30.588236%,11.764706%);fill-opacity:1;" d="M 9 7.5 C 9 10.398438 11.292969 12.75 14.117188 12.75 L 19.238281 12.75 L 19.238281 2.25 L 14.117188 2.25 C 11.292969 2.25 9 4.601562 9 7.5 Z M 9 7.5 "/>
<path style=" stroke:none;fill-rule:nonzero;fill:rgb(63.529414%,34.901962%,100%);fill-opacity:1;" d="M 9 18 C 9 20.898438 11.292969 23.25 14.117188 23.25 L 19.238281 23.25 L 19.238281 12.75 L 14.117188 12.75 C 11.292969 12.75 9 15.097656 9 18 Z M 9 18 "/>
</g>
</svg>
