<?xml version="1.0" encoding="UTF-8"?>
<svg xmlns="http://www.w3.org/2000/svg" xmlns:xlink="http://www.w3.org/1999/xlink" width="36px" height="36px" viewBox="0 0 36 36" version="1.1">
<g id="surface1">
<rect x="0" y="0" width="36" height="36" style="fill:rgb(96.862745%,87.450981%,11.764706%);fill-opacity:1;stroke:none;"/>
<path style=" stroke:none;fill-rule:nonzero;fill:rgb(0%,0%,0%);fill-opacity:1;" d="M 9.464844 30.085938 L 12.21875 28.417969 C 12.753906 29.359375 13.234375 30.15625 14.394531 30.15625 C 15.507812 30.15625 16.207031 29.722656 16.207031 28.03125 L 16.207031 16.527344 L 19.589844 16.527344 L 19.589844 28.078125 C 19.589844 31.582031 17.535156 33.175781 14.539062 33.175781 C 11.835938 33.175781 10.261719 31.777344 9.464844 30.082031 "/>
<path style=" stroke:none;fill-rule:nonzero;fill:rgb(0%,0%,0%);fill-opacity:1;" d="M 21.429688 29.722656 L 24.183594 28.125 C 24.910156 29.3125 25.851562 30.179688 27.519531 30.179688 C 28.917969 30.179688 29.8125 29.480469 29.8125 28.511719 C 29.8125 27.351562 28.894531 26.941406 27.347656 26.265625 L 26.503906 25.902344 C 24.0625 24.863281 22.445312 23.558594 22.445312 20.804688 C 22.445312 18.265625 24.375 16.335938 27.398438 16.335938 C 29.546875 16.335938 31.09375 17.082031 32.207031 19.039062 L 29.570312 20.730469 C 28.992188 19.691406 28.363281 19.28125 27.398438 19.28125 C 26.40625 19.28125 25.777344 19.910156 25.777344 20.730469 C 25.777344 21.746094 26.40625 22.15625 27.855469 22.785156 L 28.703125 23.148438 C 31.578125 24.382812 33.195312 25.636719 33.195312 28.464844 C 33.195312 31.511719 30.804688 33.175781 27.589844 33.175781 C 24.449219 33.175781 22.417969 31.679688 21.429688 29.722656 "/>
</g>
</svg>
