<?xml version="1.0" encoding="UTF-8"?>
<svg xmlns="http://www.w3.org/2000/svg" xmlns:xlink="http://www.w3.org/1999/xlink" width="36px" height="36px" viewBox="0 0 36 36" version="1.1">
<g id="surface1">
<path style=" stroke:none;fill-rule:nonzero;fill:rgb(26.666668%,65.882355%,70.19608%);fill-opacity:1;" d="M 10.125 15.414062 C 11.175781 11.210938 13.800781 9.113281 18 9.113281 C 24.300781 9.113281 25.085938 13.835938 28.238281 14.625 C 30.335938 15.148438 32.175781 14.363281 33.75 12.261719 C 32.699219 16.460938 30.074219 18.5625 25.875 18.5625 C 19.574219 18.5625 18.789062 13.835938 15.636719 13.050781 C 13.539062 12.523438 11.699219 13.3125 10.125 15.414062 Z M 2.25 24.863281 C 3.300781 20.664062 5.925781 18.5625 10.125 18.5625 C 16.425781 18.5625 17.210938 23.289062 20.363281 24.074219 C 22.460938 24.601562 24.300781 23.8125 25.875 21.710938 C 24.824219 25.914062 22.199219 28.011719 18 28.011719 C 11.699219 28.011719 10.914062 23.289062 7.761719 22.5 C 5.664062 21.976562 3.824219 22.761719 2.25 24.863281 Z M 2.25 24.863281 "/>
</g>
</svg>
